<svg xmlns="http://www.w3.org/2000/svg" width="48" height="50" viewBox="0 0 48 50">
  <path fill="#fff" fill-rule="evenodd" d="M14.747895 18.326458c.879-.002 1.59-.704 1.588-1.568-.001-.327-.105-.644-.299-.909l-8.637-12.145c-.5-.712-1.492-.891-2.216-.4-.725.491-.907 1.466-.407 2.178.004.005.008.011.011.016l8.654 12.145c.298.419.785.668 1.305.668v.015h.001zm7.31 2.087c.961-2.237.672-4.805-.764-6.782l-9.471-12.99c-.528-.692-1.527-.832-2.231-.314-.682.502-.84 1.443-.36 2.135l9.46 13.001c.801 1.103.955 2.539.403 3.782-.445.963-.316 2.089.335 2.931l17.52 22.267c.496.661.354 1.591-.318 2.079-.672.488-1.619.348-2.116-.312-.008-.011-.017-.023-.025-.035l-15.873-23.425c-.605-.876-1.651-1.355-2.723-1.247-1.379.13-2.725-.464-3.541-1.564l-9.467-13.002c-.511-.703-1.506-.865-2.221-.362-.715.503-.88 1.48-.369 2.183l9.476 13.002c1.447 1.97 3.831 3.062 6.297 2.884l15.772 23.294c.703 1.046 1.812 1.763 3.068 1.983 2.552.465 5.004-1.191 5.477-3.698.243-1.291-.084-2.623-.9-3.663l-17.429-22.147zm22.945-19.193c-2.123-1.497-5.012-1.623-8.085-.344-3.068 1.377-5.698 3.548-7.608 6.28-2.766 3.815-4.057 8.202-3.451 11.74.114.7.05 1.417-.186 2.086-.283.819.163 1.708.996 1.986s1.737-.16 2.02-.979c.406-1.162.514-2.404.313-3.616-.462-2.696.652-6.296 2.904-9.39 1.57-2.265 3.738-4.068 6.27-5.217 1.168-.485 3.371-1.127 4.995 0 1.625 1.127 1.726 3.395 1.641 4.638-.283 2.729-1.316 5.331-2.989 7.528-2.251 3.13-5.357 5.316-8.102 5.765-1.551.251-2.985.969-4.103 2.055-.605.628-.577 1.619.062 2.213.604.561 1.545.572 2.162.026.146-.141.3-.271.463-.392.561-.424 1.218-.709 1.916-.829 3.583-.59 7.41-3.22 10.177-7.038 2.013-2.671 3.248-5.831 3.572-9.14.225-3.272-.833-5.896-2.967-7.392v.02zm-22.196 38.085l-5.649 8.445c-.935 1.385-2.509 2.222-4.2 2.234-.946.002-1.872-.276-2.654-.799-2.215-1.473-2.795-4.431-1.296-6.607.054-.079.111-.156.17-.232l7.778-9.913c.545-.688 1.555-.812 2.256-.277.701.536.827 1.529.282 2.218l-7.777 9.912c-.555.715-.415 1.736.313 2.281.026.02.052.038.079.056.353.227.782.308 1.195.224.489-.096.918-.379 1.194-.787l5.649-8.478c.435-.751 1.407-1.013 2.172-.586.764.428 1.031 1.383.596 2.134-.034.059-.072.115-.113.169l.005.005v.001z"/>
</svg>
