<svg xmlns="http://www.w3.org/2000/svg" width="24" height="24" viewBox="0 0 24 24">
  <path fill="#FFF" d="M23.522 21.214l-4.816-4.816c2.935-4.04 2.581-9.727-1.062-13.371C15.707 1.086 13.077-.004 10.335 0 7.69 0 5.045 1.01 3.027 3.027c-4.036 4.036-4.036 10.58 0 14.617 1.936 1.941 4.566 3.031 7.308 3.027 2.13 0 4.26-.656 6.063-1.965l4.816 4.816c.319.319.736.478 1.154.478.901 0 1.632-.731 1.632-1.632 0-.433-.172-.848-.478-1.154zm-18.88-5.186c-3.138-3.139-3.138-8.246 0-11.385 1.507-1.515 3.557-2.364 5.693-2.358 2.15 0 4.173.837 5.693 2.358 3.14 3.139 3.14 8.246 0 11.385-1.507 1.515-3.557 2.364-5.693 2.358-2.136.006-4.186-.844-5.693-2.358z"/>
</svg>
